<svg xmlns="http://www.w3.org/2000/svg" viewBox="0 0 440 96" fill="none">
  
  <g transform="translate(48, 42)">
    <path d="
      M0,-33 
      C18.3,-33 33,-18.3 33,0 
      C33,14.6 23.2,26.8 9.8,31.7 
      L22,46.5 
      L4.9,34.2 
      C3.3,34.6 1.7,34.8 0,34.8 
      C-18.3,34.8 -33,19.5 -33,1.2 
      C-33,-17 -18.3,-33 0,-33Z
    " fill="#D97706"/>
    <rect x="-15.9" y="-9.8" width="5.5" height="19.5" rx="2.75" fill="white" opacity="0.93"/>
    <rect x="-6.1" y="-17.1" width="5.5" height="34.2" rx="2.75" fill="white" opacity="0.93"/>
    <rect x="3.7" y="-12.2" width="5.5" height="24.4" rx="2.75" fill="white" opacity="0.93"/>
    <rect x="13.4" y="-6.1" width="5.5" height="12.2" rx="2.75" fill="white" opacity="0.93"/>
  </g>
  
  <text x="98" y="58" font-family="'Inter', -apple-system, BlinkMacSystemFont, 'SF Pro Display', 'Helvetica Neue', sans-serif" font-size="40" letter-spacing="-0.03em">
    <tspan font-weight="700" fill="#1C1917">vox</tspan><tspan font-weight="400" fill="#57534E">reach</tspan>
  </text>
  
</svg>